{"title":"Planes (2013) CAM XViD UNiQUE","uid":8845658,"size":734652416,"categoryP":"video","categoryS":"movies","magnet":"?xt=urn:btih:27d5fb574d787f81a663f98e4c5e59ecbafee905&amp;dn=Planes+%282013%29+CAM+XViD+UNiQUE&amp;tr=udp%3A%2F%2Ftracker.openbittorrent.com%3A80&amp;tr=udp%3A%2F%2Fopen.demonii.com%3A1337&amp;tr=udp%3A%2F%2Ftracker.coppersurfer.tk%3A6969&amp;tr=udp%3A%2F%2Fexodus.desync.com%3A6969","seeders":2,"leechers":0,"uploader":"tykoon123","files":-1,"time":1377374482,"description":" &lt;a href=&quot;http://www.aceshowbiz.com/images/still/planes-poster04.jpg&quot; rel=&quot;nofollow&quot; target=&quot;_NEW&quot;&gt;http://www.aceshowbiz.com/images/still/planes-poster04.jpg&lt;/a&gt;\n\nInfo:\n\nFormat : AVI\nFormat/Info : Audio Video Interleave\nFile size : 696 MiB\nDuration : 1h 22mn\nOverall bit rate : 1 174 Kbps\nWriting application : VirtualDubMod 1.5.10.2 (build 2540/release)\nWriting library : VirtualDubMod build 2540/release\n\nVideo\nID : 0\nFormat : MPEG-4 Visual\nFormat profile : Advanced Simple@L5\nFormat settings, BVOP : 2\nFormat settings, QPel : No\nFormat settings, GMC : No warppoints\nFormat settings, Matrix : Default (H.263)\nMuxing mode : Packed bitstream\nCodec ID : XVID\nCodec ID/Hint : XviD\nDuration : 1h 22mn\nBit rate : 1 040 Kbps\nWidth : 720 pixels\nHeight : 304 pixels\nDisplay aspect ratio : 2.35:1\nFrame rate : 16.639 fps\nColor space : YUV\nChroma subsampling : 4:2:0\nBit depth : 8 bits\nScan type : Progressive\nCompression mode : Lossy\nBits/(Pixel*Frame) : 0.286\nStream size : 616 MiB (89%)\nWriting library : XviD 64\n\nAudio\nID : 1\nFormat : MPEG Audio\nFormat version : Version 2\nFormat profile : Layer 3\nCodec ID : 55\nCodec ID/Hint : MP3\nDuration : 1h 22mn\nBit rate mode : Constant\nBit rate : 128 Kbps\nChannel(s) : 2 channels\nSampling rate : 24.0 KHz\nCompression mode : Lossy\nStream size : 75.7 MiB (11%)\nAlignment : Split accross interleaves\nInterleave, duration : 60 ms (1.00 video frame)\nInterleave, preload duration : 500 ms\nWriting library : LAME3.99\n\n\nSource Used LATiNO / BrYaNLaMeR - Thanks :bow:\n\n\nScreens: &lt;a href=&quot;\nhttp://1337x.org/torrent/613673/Planes-2013-CAM-XViD-UNiQUE/&quot; rel=&quot;nofollow&quot; target=&quot;_NEW&quot;&gt;\nhttp://1337x.org/torrent/613673/Planes-2013-CAM-XViD-UNiQUE/&lt;/a&gt;","torrent":{"xt":"urn:btih:27d5fb574d787f81a663f98e4c5e59ecbafee905","amp;dn":"Planes+%282013%29+CAM+XViD+UNiQUE","amp;tr":["udp%3A%2F%2Ftracker.openbittorrent.com%3A80","udp%3A%2F%2Fopen.demonii.com%3A1337","udp%3A%2F%2Ftracker.coppersurfer.tk%3A6969","udp%3A%2F%2Fexodus.desync.com%3A6969"],"infoHash":"27d5fb574d787f81a663f98e4c5e59ecbafee905","infoHashBuffer":{"type":"Buffer","data":[39,213,251,87,77,120,127,129,166,99,249,142,76,94,89,236,186,254,233,5]},"announce":[],"urlList":[]}}